<svg xmlns="http://www.w3.org/2000/svg" xmlns:xlink="http://www.w3.org/1999/xlink" width="170" zoomAndPan="magnify" viewBox="0 0 300.75 56.999997" height="40" preserveAspectRatio="xMidYMid meet" version="1.0"><defs><g/><clipPath id="30e8b6dd70"><path d="M 37 0.214844 L 51.527344 0.214844 L 51.527344 29 L 37 29 Z M 37 0.214844 " clip-rule="nonzero"/></clipPath><clipPath id="cb4e5c61e9"><path d="M 14 28 L 35 28 L 35 56.464844 L 14 56.464844 Z M 14 28 " clip-rule="nonzero"/></clipPath><clipPath id="8cbc8c1752"><path d="M 0.527344 0.214844 L 15 0.214844 L 15 29 L 0.527344 29 Z M 0.527344 0.214844 " clip-rule="nonzero"/></clipPath><clipPath id="a5f6f2d4de"><path d="M 0.527344 3 L 51.527344 3 L 51.527344 54 L 0.527344 54 Z M 0.527344 3 " clip-rule="nonzero"/></clipPath><clipPath id="8dc48b1670"><path d="M 37 0.214844 L 51.527344 0.214844 L 51.527344 29 L 37 29 Z M 37 0.214844 " clip-rule="nonzero"/></clipPath><clipPath id="19e8cd2394"><path d="M 14 28 L 35 28 L 35 56.464844 L 14 56.464844 Z M 14 28 " clip-rule="nonzero"/></clipPath><clipPath id="cd47ed995d"><path d="M 0.527344 0.214844 L 15 0.214844 L 15 29 L 0.527344 29 Z M 0.527344 0.214844 " clip-rule="nonzero"/></clipPath><clipPath id="7508d369df"><path d="M 0.527344 0.214844 L 51.527344 0.214844 L 51.527344 56.464844 L 0.527344 56.464844 Z M 0.527344 0.214844 " clip-rule="nonzero"/></clipPath></defs><g clip-path="url(#30e8b6dd70)"><path fill="#26dc6a" d="M 51.515625 5.839844 L 45.851562 17.089844 L 43.019531 22.710938 L 40.1875 28.339844 L 37.355469 22.710938 L 40.1875 17.089844 L 48.683594 0.214844 Z M 51.515625 5.839844 " fill-opacity="1" fill-rule="nonzero"/></g><g clip-path="url(#cb4e5c61e9)"><path fill="#26dc6a" d="M 26.027344 56.464844 L 14.699219 33.964844 L 17.53125 28.339844 L 26.027344 45.214844 L 31.691406 33.964844 L 34.523438 39.589844 L 26.027344 56.464844 " fill-opacity="1" fill-rule="nonzero"/></g><g clip-path="url(#8cbc8c1752)"><path fill="#26dc6a" d="M 14.699219 22.710938 L 11.867188 28.339844 L 9.035156 22.710938 L 6.203125 17.089844 L 3.375 11.464844 L 0.542969 5.839844 L 3.375 0.214844 L 6.203125 5.839844 L 11.867188 17.089844 Z M 14.699219 22.710938 " fill-opacity="1" fill-rule="nonzero"/></g><g clip-path="url(#a5f6f2d4de)"><path fill="#ffffff" d="M 50.949219 51.964844 C 50.734375 52.390625 50.421875 52.726562 50.011719 52.976562 C 49.605469 53.226562 49.160156 53.351562 48.683594 53.351562 C 48.203125 53.351562 47.757812 53.226562 47.351562 52.976562 C 46.945312 52.726562 46.632812 52.390625 46.417969 51.964844 L 34.523438 28.339844 L 31.691406 22.710938 L 28.859375 17.089844 L 27.230469 13.847656 C 27.113281 13.621094 26.949219 13.445312 26.734375 13.3125 C 26.515625 13.179688 26.28125 13.113281 26.027344 13.113281 C 25.773438 13.113281 25.539062 13.179688 25.320312 13.3125 C 25.105469 13.445312 24.941406 13.621094 24.828125 13.847656 L 23.195312 17.089844 L 20.363281 22.710938 L 17.53125 28.339844 L 5.636719 51.964844 C 5.421875 52.390625 5.113281 52.726562 4.703125 52.976562 C 4.296875 53.226562 3.851562 53.351562 3.375 53.351562 C 2.894531 53.351562 2.449219 53.226562 2.042969 52.976562 C 1.632812 52.726562 1.324219 52.390625 1.109375 51.964844 C 0.929688 51.609375 0.839844 51.234375 0.839844 50.839844 C 0.839844 50.445312 0.929688 50.070312 1.109375 49.714844 L 3.375 45.214844 L 6.203125 39.589844 L 11.867188 28.339844 L 14.699219 22.710938 L 17.53125 17.089844 L 20.363281 11.464844 L 23.183594 5.839844 L 23.75 4.714844 C 23.964844 4.289062 24.277344 3.949219 24.683594 3.699219 C 25.09375 3.449219 25.535156 3.324219 26.015625 3.324219 C 26.496094 3.324219 26.941406 3.449219 27.347656 3.699219 C 27.753906 3.949219 28.066406 4.289062 28.28125 4.714844 L 34.511719 17.089844 L 37.34375 22.710938 L 40.175781 28.339844 L 50.9375 49.714844 C 51.117188 50.066406 51.207031 50.441406 51.210938 50.835938 C 51.214844 51.234375 51.125 51.609375 50.949219 51.964844 Z M 50.949219 51.964844 " fill-opacity="1" fill-rule="nonzero"/></g><g clip-path="url(#8dc48b1670)"><path fill="#26dc6a" d="M 51.515625 5.839844 L 45.851562 17.089844 L 43.019531 22.710938 L 40.1875 28.339844 L 37.355469 22.710938 L 40.1875 17.089844 L 48.683594 0.214844 Z M 51.515625 5.839844 " fill-opacity="1" fill-rule="nonzero"/></g><g clip-path="url(#19e8cd2394)"><path fill="#26dc6a" d="M 26.027344 56.464844 L 23.183594 50.839844 L 14.6875 33.964844 L 17.519531 28.339844 L 23.183594 39.589844 L 24.8125 42.828125 C 24.925781 43.054688 25.089844 43.238281 25.308594 43.371094 C 25.527344 43.503906 25.761719 43.570312 26.015625 43.570312 C 26.273438 43.570312 26.507812 43.503906 26.726562 43.371094 C 26.945312 43.238281 27.109375 43.054688 27.222656 42.828125 L 28.847656 39.589844 L 31.679688 33.964844 L 34.511719 39.589844 L 26.015625 56.464844 " fill-opacity="1" fill-rule="nonzero"/></g><g clip-path="url(#cd47ed995d)"><path fill="#26dc6a" d="M 14.699219 22.710938 L 11.867188 28.339844 L 9.035156 22.710938 L 6.203125 17.089844 L 3.375 11.464844 L 0.542969 5.839844 L 3.375 0.214844 L 6.203125 5.839844 L 11.867188 17.089844 Z M 14.699219 22.710938 " fill-opacity="1" fill-rule="nonzero"/></g><g clip-path="url(#7508d369df)"><path fill="#ffffff" d="M 51.515625 50.839844 L 48.683594 56.464844 L 34.523438 28.339844 L 31.691406 22.710938 L 28.859375 17.089844 L 26.027344 11.464844 L 23.195312 17.089844 L 20.363281 22.710938 L 17.53125 28.339844 L 6.203125 50.839844 L 3.375 56.464844 L 0.542969 50.839844 L 3.375 45.214844 L 6.203125 39.589844 L 11.867188 28.339844 L 14.699219 22.710938 L 17.53125 17.089844 L 26.027344 0.214844 L 34.523438 17.089844 L 37.355469 22.710938 L 40.1875 28.339844 Z M 51.515625 50.839844 " fill-opacity="1" fill-rule="nonzero"/></g><g fill="#ffffff" fill-opacity="1"><g transform="translate(75.142213, 33.797535)"><g><path d="M 1.964844 0 L 7.601562 0 L 7.601562 -21.722656 L 1.964844 -21.722656 Z M 1.964844 0 "/></g></g></g><g fill="#ffffff" fill-opacity="1"><g transform="translate(81.478586, 33.797535)"><g><path d="M 11.976562 0.441406 C 16.671875 0.441406 19.933594 -2.90625 19.933594 -7.777344 C 19.933594 -12.59375 16.671875 -15.96875 11.976562 -15.96875 C 10.304688 -15.96875 8.804688 -15.527344 7.601562 -14.734375 L 7.601562 -21.722656 L 1.964844 -21.722656 L 1.964844 0 L 6.019531 0 L 6.574219 -1.554688 C 7.957031 -0.292969 9.804688 0.441406 11.976562 0.441406 Z M 7.398438 -7.777344 C 7.398438 -9.832031 8.804688 -11.300781 10.890625 -11.300781 C 12.976562 -11.300781 14.382812 -9.832031 14.382812 -7.777344 C 14.382812 -5.695312 12.976562 -4.226562 10.890625 -4.226562 C 8.804688 -4.226562 7.398438 -5.695312 7.398438 -7.777344 Z M 7.398438 -7.777344 "/></g></g></g><g fill="#ffffff" fill-opacity="1"><g transform="translate(99.082948, 33.797535)"><g><path d="M 9.6875 0.441406 C 13.707031 0.441406 16.792969 -1.554688 18.171875 -5.019531 L 12.710938 -5.019531 C 12.09375 -4.285156 11.007812 -3.816406 9.804688 -3.816406 C 8.21875 -3.816406 6.898438 -4.667969 6.488281 -6.371094 L 18.464844 -6.371094 C 18.757812 -12.152344 15.265625 -15.96875 9.714844 -15.96875 C 4.519531 -15.96875 0.910156 -12.621094 0.910156 -7.777344 C 0.910156 -2.90625 4.492188 0.441406 9.6875 0.441406 Z M 6.515625 -9.421875 C 6.988281 -10.921875 8.21875 -11.742188 9.773438 -11.742188 C 11.476562 -11.742188 12.621094 -10.863281 13.09375 -9.421875 Z M 6.515625 -9.421875 "/></g></g></g><g fill="#ffffff" fill-opacity="1"><g transform="translate(115.190778, 33.797535)"><g><path d="M 1.964844 0 L 7.601562 0 L 7.601562 -6.632812 C 7.601562 -9.277344 8.746094 -10.480469 11.273438 -10.480469 L 13.0625 -10.480469 L 13.0625 -15.527344 L 11.242188 -15.527344 C 9.070312 -15.527344 7.691406 -14.941406 6.722656 -13.589844 L 6.019531 -15.527344 L 1.964844 -15.527344 Z M 1.964844 0 "/></g></g></g><g fill="#ffffff" fill-opacity="1"><g transform="translate(125.928709, 33.797535)"><g><path d="M 9.863281 0 L 13.003906 0 L 13.003906 -4.753906 L 11.390625 -4.753906 C 9.746094 -4.753906 8.984375 -5.488281 8.984375 -7.105469 L 8.984375 -11.097656 L 12.796875 -11.097656 L 12.796875 -15.527344 L 8.984375 -15.527344 L 8.984375 -19.609375 L 4.609375 -19.609375 L 4.316406 -17.582031 C 4.082031 -15.96875 3.640625 -15.527344 1.878906 -15.527344 L 0.46875 -15.527344 L 0.46875 -11.097656 L 3.347656 -11.097656 L 3.347656 -6.019531 C 3.347656 -2.085938 5.605469 0 9.863281 0 Z M 9.863281 0 "/></g></g></g><g fill="#ffffff" fill-opacity="1"><g transform="translate(136.842698, 33.797535)"><g><path d="M 9.953125 0.441406 C 15.324219 0.441406 18.964844 -2.875 18.964844 -7.777344 C 18.964844 -12.652344 15.324219 -15.96875 9.953125 -15.96875 C 4.550781 -15.96875 0.910156 -12.652344 0.910156 -7.777344 C 0.910156 -2.875 4.550781 0.441406 9.953125 0.441406 Z M 6.429688 -7.777344 C 6.429688 -9.832031 7.898438 -11.300781 9.953125 -11.300781 C 12.007812 -11.300781 13.445312 -9.832031 13.445312 -7.777344 C 13.445312 -5.695312 12.007812 -4.226562 9.953125 -4.226562 C 7.898438 -4.226562 6.429688 -5.695312 6.429688 -7.777344 Z M 6.429688 -7.777344 "/></g></g></g><g fill="#ffffff" fill-opacity="1"><g transform="translate(153.470333, 33.797535)"><g/></g></g><g fill="#ffffff" fill-opacity="1"><g transform="translate(157.019051, 33.797535)"><g/></g></g><g fill="#ffffff" fill-opacity="1"><g transform="translate(160.56777, 33.797535)"><g/></g></g><g fill="#ffffff" fill-opacity="1"><g transform="translate(164.116489, 33.797535)"><g/></g></g><g fill="#ffffff" fill-opacity="1"><g transform="translate(167.665207, 33.797535)"><g/></g></g><g fill="#ffffff" fill-opacity="1"><g transform="translate(171.213925, 33.797535)"><g/></g></g><g fill="#ffffff" fill-opacity="1"><g transform="translate(174.751581, 33.797535)"><g><path d="M 1.964844 0 L 7.601562 0 L 7.601562 -21.722656 L 1.964844 -21.722656 Z M 1.964844 0 "/></g></g></g><g fill="#ffffff" fill-opacity="1"><g transform="translate(181.087954, 33.797535)"><g><path d="M 9.6875 0.441406 C 13.707031 0.441406 16.792969 -1.554688 18.171875 -5.019531 L 12.710938 -5.019531 C 12.09375 -4.285156 11.007812 -3.816406 9.804688 -3.816406 C 8.21875 -3.816406 6.898438 -4.667969 6.488281 -6.371094 L 18.464844 -6.371094 C 18.757812 -12.152344 15.265625 -15.96875 9.714844 -15.96875 C 4.519531 -15.96875 0.910156 -12.621094 0.910156 -7.777344 C 0.910156 -2.90625 4.492188 0.441406 9.6875 0.441406 Z M 6.515625 -9.421875 C 6.988281 -10.921875 8.21875 -11.742188 9.773438 -11.742188 C 11.476562 -11.742188 12.621094 -10.863281 13.09375 -9.421875 Z M 6.515625 -9.421875 "/></g></g></g><g fill="#ffffff" fill-opacity="1"><g transform="translate(197.195784, 33.797535)"><g><path d="M -1.351562 6.75 L 0.96875 6.75 C 5.519531 6.75 7.71875 4.492188 7.71875 -0.207031 L 7.71875 -15.527344 L 2.085938 -15.527344 L 2.085938 -0.324219 C 2.085938 1.203125 1.410156 1.90625 0 1.90625 L -1.351562 1.90625 Z M 1.4375 -20.84375 C 1.4375 -18.90625 2.816406 -17.554688 4.8125 -17.554688 C 6.78125 -17.554688 8.191406 -18.90625 8.191406 -20.84375 C 8.191406 -22.78125 6.78125 -24.101562 4.8125 -24.101562 C 2.816406 -24.101562 1.4375 -22.78125 1.4375 -20.84375 Z M 1.4375 -20.84375 "/></g></g></g><g fill="#ffffff" fill-opacity="1"><g transform="translate(203.649528, 33.797535)"><g><path d="M 7.132812 0.351562 C 9.363281 0.351562 11.242188 -0.382812 12.5625 -1.703125 L 13.179688 0 L 17.230469 0 L 17.230469 -9.042969 C 17.230469 -13.472656 14.441406 -15.96875 9.453125 -15.96875 C 5.109375 -15.96875 2.496094 -14.003906 2.027344 -10.421875 L 7.308594 -10.421875 C 7.457031 -11.332031 8.335938 -11.949219 9.480469 -11.949219 C 10.742188 -11.949219 11.742188 -11.214844 11.742188 -10.1875 L 11.742188 -9.304688 L 6.515625 -9.304688 C 3.316406 -9.304688 1.261719 -7.398438 1.261719 -4.550781 C 1.261719 -1.527344 3.550781 0.351562 7.132812 0.351562 Z M 6.78125 -4.8125 C 6.78125 -5.695312 7.542969 -6.222656 8.746094 -6.222656 L 11.800781 -6.222656 C 11.800781 -4.519531 10.507812 -3.375 8.804688 -3.375 C 7.601562 -3.375 6.78125 -3.933594 6.78125 -4.8125 Z M 6.78125 -4.8125 "/></g></g></g><g fill="#ffffff" fill-opacity="1"><g transform="translate(219.317195, 33.797535)"><g><path d="M 1.964844 0 L 7.601562 0 L 7.601562 -8.367188 C 7.601562 -10.246094 8.570312 -11.300781 10.128906 -11.300781 C 11.625 -11.300781 12.503906 -10.332031 12.503906 -8.511719 L 12.503906 0 L 18.140625 0 L 18.140625 -9.101562 C 18.140625 -13.296875 15.644531 -15.96875 11.652344 -15.96875 C 9.570312 -15.96875 7.75 -15.234375 6.605469 -13.945312 L 6.019531 -15.527344 L 1.964844 -15.527344 Z M 1.964844 0 "/></g></g></g><g fill="#ffffff" fill-opacity="1"><g transform="translate(235.894522, 33.797535)"><g><path d="M 8.835938 0.441406 C 11.039062 0.441406 12.886719 -0.292969 14.265625 -1.554688 L 14.824219 0 L 18.875 0 L 18.875 -21.722656 L 13.238281 -21.722656 L 13.238281 -14.734375 C 12.007812 -15.527344 10.507812 -15.96875 8.835938 -15.96875 C 4.167969 -15.96875 0.910156 -12.59375 0.910156 -7.777344 C 0.910156 -2.90625 4.167969 0.441406 8.835938 0.441406 Z M 6.429688 -7.777344 C 6.429688 -9.832031 7.867188 -11.300781 9.953125 -11.300781 C 12.007812 -11.300781 13.445312 -9.832031 13.445312 -7.777344 C 13.445312 -5.695312 12.007812 -4.226562 9.953125 -4.226562 C 7.867188 -4.226562 6.429688 -5.695312 6.429688 -7.777344 Z M 6.429688 -7.777344 "/></g></g></g><g fill="#ffffff" fill-opacity="1"><g transform="translate(253.498886, 33.797535)"><g><path d="M 1.964844 0 L 7.601562 0 L 7.601562 -6.632812 C 7.601562 -9.277344 8.746094 -10.480469 11.273438 -10.480469 L 13.0625 -10.480469 L 13.0625 -15.527344 L 11.242188 -15.527344 C 9.070312 -15.527344 7.691406 -14.941406 6.722656 -13.589844 L 6.019531 -15.527344 L 1.964844 -15.527344 Z M 1.964844 0 "/></g></g></g><g fill="#ffffff" fill-opacity="1"><g transform="translate(264.23682, 33.797535)"><g><path d="M 9.953125 0.441406 C 15.324219 0.441406 18.964844 -2.875 18.964844 -7.777344 C 18.964844 -12.652344 15.324219 -15.96875 9.953125 -15.96875 C 4.550781 -15.96875 0.910156 -12.652344 0.910156 -7.777344 C 0.910156 -2.875 4.550781 0.441406 9.953125 0.441406 Z M 6.429688 -7.777344 C 6.429688 -9.832031 7.898438 -11.300781 9.953125 -11.300781 C 12.007812 -11.300781 13.445312 -9.832031 13.445312 -7.777344 C 13.445312 -5.695312 12.007812 -4.226562 9.953125 -4.226562 C 7.898438 -4.226562 6.429688 -5.695312 6.429688 -7.777344 Z M 6.429688 -7.777344 "/></g></g></g><g fill="#26dc6a" fill-opacity="1"><g transform="translate(152.54699, 49.151724)"><g><path d="M 0.960938 0 L 4.820312 0 C 7.757812 0 9.710938 -1.808594 9.710938 -4.550781 C 9.710938 -7.277344 7.757812 -9.097656 4.820312 -9.097656 L 0.960938 -9.097656 Z M 3.585938 -2.351562 L 3.585938 -6.746094 L 4.742188 -6.746094 C 6.136719 -6.746094 7.03125 -5.886719 7.03125 -4.550781 C 7.03125 -3.210938 6.136719 -2.351562 4.742188 -2.351562 Z M 3.585938 -2.351562 "/></g></g></g><g fill="#26dc6a" fill-opacity="1"><g transform="translate(162.696881, 49.151724)"><g><path d="M 0.960938 0 L 7.34375 0 L 7.34375 -2.144531 L 3.5625 -2.144531 L 3.5625 -3.546875 L 6.851562 -3.546875 L 6.851562 -5.652344 L 3.5625 -5.652344 L 3.5625 -6.980469 L 7.199219 -6.980469 L 7.199219 -9.097656 L 0.960938 -9.097656 Z M 0.960938 0 "/></g></g></g><g fill="#26dc6a" fill-opacity="1"><g transform="translate(170.624454, 49.151724)"><g><path d="M 3.484375 0 L 6.082031 0 L 9.5 -9.097656 L 6.707031 -9.097656 L 5.640625 -6.097656 L 4.796875 -3.730469 L 3.953125 -6.097656 L 2.886719 -9.097656 L 0.0664062 -9.097656 Z M 3.484375 0 "/></g></g></g><g fill="#ffffff" fill-opacity="1"><g transform="translate(177.198416, 12.840712)"><g><path d="M -7.886719 0 L -13.773438 0 L -21.515625 20.605469 L -15.1875 20.605469 L -12.773438 13.804688 L -10.859375 8.449219 L -8.949219 13.804688 L -6.535156 20.605469 L -0.148438 20.605469 Z M -7.886719 0 "/></g></g></g><g fill="#ffffff" fill-opacity="1"><g transform="translate(78.509828, 12.840712)"><g><path d="M -7.886719 0 L -13.773438 0 L -21.515625 20.605469 L -15.1875 20.605469 L -12.773438 13.804688 L -10.859375 8.449219 L -8.949219 13.804688 L -6.535156 20.605469 L -0.148438 20.605469 Z M -7.886719 0 "/></g></g></g></svg>