<svg xmlns="http://www.w3.org/2000/svg" xmlns:xlink="http://www.w3.org/1999/xlink" width="240" zoomAndPan="magnify" viewBox="0 0 280.5 56.999997" height="48" preserveAspectRatio="xMidYMid meet" version="1.0"><defs><g/><clipPath id="a05e55753f"><path d="M 37 0.242188 L 51.527344 0.242188 L 51.527344 29 L 37 29 Z M 37 0.242188 " clip-rule="nonzero"/></clipPath><clipPath id="6badbbc148"><path d="M 14 28 L 35 28 L 35 56.492188 L 14 56.492188 Z M 14 28 " clip-rule="nonzero"/></clipPath><clipPath id="a77530b5e1"><path d="M 0.527344 0.242188 L 15 0.242188 L 15 29 L 0.527344 29 Z M 0.527344 0.242188 " clip-rule="nonzero"/></clipPath><clipPath id="beb4bd836f"><path d="M 0.527344 3 L 51.527344 3 L 51.527344 54 L 0.527344 54 Z M 0.527344 3 " clip-rule="nonzero"/></clipPath><clipPath id="d4bcacc41d"><path d="M 37 0.242188 L 51.527344 0.242188 L 51.527344 29 L 37 29 Z M 37 0.242188 " clip-rule="nonzero"/></clipPath><clipPath id="c9c33b2128"><path d="M 14 28 L 35 28 L 35 56.492188 L 14 56.492188 Z M 14 28 " clip-rule="nonzero"/></clipPath><clipPath id="36eab84de3"><path d="M 0.527344 0.242188 L 15 0.242188 L 15 29 L 0.527344 29 Z M 0.527344 0.242188 " clip-rule="nonzero"/></clipPath><clipPath id="5d564bb214"><path d="M 0.527344 0.242188 L 51.527344 0.242188 L 51.527344 56.492188 L 0.527344 56.492188 Z M 0.527344 0.242188 " clip-rule="nonzero"/></clipPath><clipPath id="c697767d20"><path d="M 64.722656 20.425781 L 74.84375 20.425781 L 74.84375 37.695312 L 64.722656 37.695312 Z M 64.722656 20.425781 " clip-rule="nonzero"/></clipPath><clipPath id="4308d77a23"><path d="M 69.847656 20.53125 L 64.851562 37.695312 L 74.84375 37.695312 L 69.847656 20.53125 " clip-rule="nonzero"/></clipPath><clipPath id="7b5e83d407"><path d="M 162.054688 20.425781 L 172.175781 20.425781 L 172.175781 37.695312 L 162.054688 37.695312 Z M 162.054688 20.425781 " clip-rule="nonzero"/></clipPath><clipPath id="d2cd19d546"><path d="M 167.179688 20.53125 L 162.183594 37.695312 L 172.175781 37.695312 L 167.179688 20.53125 " clip-rule="nonzero"/></clipPath></defs><g clip-path="url(#a05e55753f)"><path fill="#26dc6a" d="M 51.515625 5.867188 L 48.683594 11.492188 L 45.851562 17.113281 L 43.019531 22.738281 L 40.1875 28.367188 L 37.355469 22.738281 L 40.1875 17.113281 L 45.851562 5.867188 L 48.683594 0.242188 Z M 51.515625 5.867188 " fill-opacity="1" fill-rule="nonzero"/></g><g clip-path="url(#6badbbc148)"><path fill="#26dc6a" d="M 26.027344 56.492188 L 14.699219 33.992188 L 17.53125 28.367188 L 26.027344 45.242188 L 31.691406 33.992188 L 34.523438 39.617188 L 26.027344 56.492188 " fill-opacity="1" fill-rule="nonzero"/></g><g clip-path="url(#a77530b5e1)"><path fill="#26dc6a" d="M 14.699219 22.738281 L 11.867188 28.367188 L 9.035156 22.738281 L 6.203125 17.113281 L 3.375 11.492188 L 0.542969 5.867188 L 3.375 0.242188 L 6.203125 5.867188 L 11.867188 17.113281 Z M 14.699219 22.738281 " fill-opacity="1" fill-rule="nonzero"/></g><g clip-path="url(#beb4bd836f)"><path fill="#ffffff" d="M 50.949219 51.992188 C 50.734375 52.417969 50.421875 52.753906 50.011719 53.003906 C 49.605469 53.253906 49.160156 53.378906 48.683594 53.378906 C 48.203125 53.378906 47.757812 53.253906 47.351562 53.003906 C 46.945312 52.753906 46.632812 52.417969 46.417969 51.992188 L 34.523438 28.367188 L 31.691406 22.738281 L 28.859375 17.113281 L 27.230469 13.875 C 27.113281 13.648438 26.949219 13.472656 26.734375 13.339844 C 26.515625 13.207031 26.28125 13.140625 26.027344 13.140625 C 25.773438 13.140625 25.539062 13.207031 25.320312 13.339844 C 25.105469 13.472656 24.941406 13.648438 24.828125 13.875 L 23.195312 17.113281 L 20.363281 22.738281 L 17.53125 28.367188 L 5.636719 51.992188 C 5.421875 52.417969 5.113281 52.753906 4.703125 53.003906 C 4.296875 53.253906 3.851562 53.378906 3.375 53.378906 C 2.894531 53.378906 2.449219 53.253906 2.042969 53.003906 C 1.632812 52.753906 1.324219 52.417969 1.109375 51.992188 C 0.929688 51.636719 0.839844 51.261719 0.839844 50.867188 C 0.839844 50.46875 0.929688 50.09375 1.109375 49.742188 L 3.375 45.242188 L 6.203125 39.617188 L 11.867188 28.367188 L 14.699219 22.738281 L 17.53125 17.113281 L 20.363281 11.492188 L 23.183594 5.867188 L 23.75 4.742188 C 23.964844 4.316406 24.277344 3.976562 24.683594 3.726562 C 25.09375 3.476562 25.535156 3.347656 26.015625 3.347656 C 26.496094 3.347656 26.941406 3.476562 27.347656 3.726562 C 27.753906 3.976562 28.066406 4.316406 28.28125 4.742188 L 31.679688 11.492188 L 34.511719 17.113281 L 37.34375 22.738281 L 40.175781 28.367188 L 50.9375 49.742188 C 51.117188 50.09375 51.207031 50.46875 51.210938 50.863281 C 51.214844 51.261719 51.125 51.636719 50.949219 51.992188 Z M 50.949219 51.992188 " fill-opacity="1" fill-rule="nonzero"/></g><g clip-path="url(#d4bcacc41d)"><path fill="#26dc6a" d="M 51.515625 5.867188 L 48.683594 11.492188 L 45.851562 17.113281 L 43.019531 22.738281 L 40.1875 28.367188 L 37.355469 22.738281 L 40.1875 17.113281 L 45.851562 5.867188 L 48.683594 0.242188 Z M 51.515625 5.867188 " fill-opacity="1" fill-rule="nonzero"/></g><g clip-path="url(#c9c33b2128)"><path fill="#26dc6a" d="M 26.027344 56.492188 L 23.183594 50.867188 L 14.6875 33.992188 L 17.519531 28.367188 L 23.183594 39.617188 L 24.8125 42.855469 C 24.925781 43.082031 25.089844 43.265625 25.308594 43.398438 C 25.527344 43.53125 25.761719 43.597656 26.015625 43.597656 C 26.273438 43.597656 26.507812 43.53125 26.726562 43.398438 C 26.945312 43.265625 27.109375 43.082031 27.222656 42.855469 L 28.847656 39.617188 L 31.679688 33.992188 L 34.511719 39.617188 L 26.015625 56.492188 " fill-opacity="1" fill-rule="nonzero"/></g><g clip-path="url(#36eab84de3)"><path fill="#26dc6a" d="M 14.699219 22.738281 L 11.867188 28.367188 L 9.035156 22.738281 L 6.203125 17.113281 L 3.375 11.492188 L 0.542969 5.867188 L 3.375 0.242188 L 6.203125 5.867188 L 11.867188 17.113281 Z M 14.699219 22.738281 " fill-opacity="1" fill-rule="nonzero"/></g><g clip-path="url(#5d564bb214)"><path fill="#ffffff" d="M 51.515625 50.867188 L 48.683594 56.492188 L 34.523438 28.367188 L 31.691406 22.738281 L 28.859375 17.113281 L 26.027344 11.492188 L 23.195312 17.113281 L 20.363281 22.738281 L 17.53125 28.367188 L 6.203125 50.867188 L 3.375 56.492188 L 0.542969 50.867188 L 3.375 45.242188 L 6.203125 39.617188 L 11.867188 28.367188 L 14.699219 22.738281 L 17.53125 17.113281 L 20.363281 11.492188 L 26.027344 0.242188 L 31.691406 11.492188 L 34.523438 17.113281 L 37.355469 22.738281 L 40.1875 28.367188 Z M 51.515625 50.867188 " fill-opacity="1" fill-rule="nonzero"/></g><g fill="#ffffff" fill-opacity="1"><g transform="translate(59.240121, 34.013984)"><g><path d="M 0.140625 0 L 6.210938 0 L 7.289062 -2.808594 L 14.066406 -2.808594 L 15.144531 0 L 21.242188 0 L 13.527344 -19.851562 L 7.855469 -19.851562 Z M 8.480469 -7.003906 L 10.691406 -13.160156 L 12.902344 -7.003906 Z M 8.480469 -7.003906 "/></g></g></g><g fill="#ffffff" fill-opacity="1"><g transform="translate(77.498063, 34.013984)"><g><path d="M 1.898438 0 L 7.34375 0 L 7.34375 -20.984375 L 1.898438 -20.984375 Z M 1.898438 0 "/></g></g></g><g fill="#ffffff" fill-opacity="1"><g transform="translate(83.621226, 34.013984)"><g><path d="M 11.570312 0.425781 C 16.109375 0.425781 19.253906 -2.808594 19.253906 -7.515625 C 19.253906 -12.164062 16.109375 -15.425781 11.570312 -15.425781 C 9.953125 -15.425781 8.507812 -15 7.34375 -14.234375 L 7.34375 -20.984375 L 1.898438 -20.984375 L 1.898438 0 L 5.8125 0 L 6.351562 -1.503906 C 7.683594 -0.285156 9.472656 0.425781 11.570312 0.425781 Z M 7.144531 -7.515625 C 7.144531 -9.5 8.507812 -10.917969 10.519531 -10.917969 C 12.535156 -10.917969 13.894531 -9.5 13.894531 -7.515625 C 13.894531 -5.5 12.535156 -4.082031 10.519531 -4.082031 C 8.507812 -4.082031 7.144531 -5.5 7.144531 -7.515625 Z M 7.144531 -7.515625 "/></g></g></g><g fill="#ffffff" fill-opacity="1"><g transform="translate(100.63167, 34.013984)"><g><path d="M 9.359375 0.425781 C 13.242188 0.425781 16.222656 -1.503906 17.554688 -4.847656 L 12.277344 -4.847656 C 11.683594 -4.140625 10.632812 -3.6875 9.472656 -3.6875 C 7.941406 -3.6875 6.664062 -4.507812 6.265625 -6.152344 L 17.835938 -6.152344 C 18.121094 -11.742188 14.746094 -15.425781 9.386719 -15.425781 C 4.367188 -15.425781 0.878906 -12.195312 0.878906 -7.515625 C 0.878906 -2.808594 4.339844 0.425781 9.359375 0.425781 Z M 6.296875 -9.101562 C 6.75 -10.550781 7.941406 -11.34375 9.441406 -11.34375 C 11.089844 -11.34375 12.195312 -10.492188 12.648438 -9.101562 Z M 6.296875 -9.101562 "/></g></g></g><g fill="#ffffff" fill-opacity="1"><g transform="translate(116.196147, 34.013984)"><g><path d="M 1.898438 0 L 7.34375 0 L 7.34375 -6.410156 C 7.34375 -8.960938 8.449219 -10.125 10.890625 -10.125 L 12.621094 -10.125 L 12.621094 -15 L 10.859375 -15 C 8.761719 -15 7.429688 -14.433594 6.492188 -13.128906 L 5.8125 -15 L 1.898438 -15 Z M 1.898438 0 "/></g></g></g><g fill="#ffffff" fill-opacity="1"><g transform="translate(126.572156, 34.013984)"><g><path d="M 9.527344 0 L 12.5625 0 L 12.5625 -4.59375 L 11.003906 -4.59375 C 9.414062 -4.59375 8.675781 -5.304688 8.675781 -6.863281 L 8.675781 -10.71875 L 12.363281 -10.71875 L 12.363281 -15 L 8.675781 -15 L 8.675781 -18.945312 L 4.453125 -18.945312 L 4.167969 -16.988281 C 3.941406 -15.425781 3.515625 -15 1.816406 -15 L 0.453125 -15 L 0.453125 -10.71875 L 3.234375 -10.71875 L 3.234375 -5.8125 C 3.234375 -2.011719 5.417969 0 9.527344 0 Z M 9.527344 0 "/></g></g></g><g fill="#ffffff" fill-opacity="1"><g transform="translate(137.118281, 34.013984)"><g><path d="M 9.613281 0.425781 C 14.804688 0.425781 18.320312 -2.777344 18.320312 -7.515625 C 18.320312 -12.222656 14.804688 -15.425781 9.613281 -15.425781 C 4.394531 -15.425781 0.878906 -12.222656 0.878906 -7.515625 C 0.878906 -2.777344 4.394531 0.425781 9.613281 0.425781 Z M 6.210938 -7.515625 C 6.210938 -9.5 7.628906 -10.917969 9.613281 -10.917969 C 11.597656 -10.917969 12.988281 -9.5 12.988281 -7.515625 C 12.988281 -5.5 11.597656 -4.082031 9.613281 -4.082031 C 7.628906 -4.082031 6.210938 -5.5 6.210938 -7.515625 Z M 6.210938 -7.515625 "/></g></g></g><g fill="#ffffff" fill-opacity="1"><g transform="translate(153.193094, 34.013984)"><g/></g></g><g fill="#ffffff" fill-opacity="1"><g transform="translate(156.622787, 34.013984)"><g><path d="M 0.140625 0 L 6.210938 0 L 7.289062 -2.808594 L 14.066406 -2.808594 L 15.144531 0 L 21.242188 0 L 13.527344 -19.851562 L 7.855469 -19.851562 Z M 8.480469 -7.003906 L 10.691406 -13.160156 L 12.902344 -7.003906 Z M 8.480469 -7.003906 "/></g></g></g><g fill="#ffffff" fill-opacity="1"><g transform="translate(174.880733, 34.013984)"><g><path d="M 1.898438 0 L 7.34375 0 L 7.34375 -20.984375 L 1.898438 -20.984375 Z M 1.898438 0 "/></g></g></g><g fill="#ffffff" fill-opacity="1"><g transform="translate(181.003899, 34.013984)"><g><path d="M 9.359375 0.425781 C 13.242188 0.425781 16.222656 -1.503906 17.554688 -4.847656 L 12.277344 -4.847656 C 11.683594 -4.140625 10.632812 -3.6875 9.472656 -3.6875 C 7.941406 -3.6875 6.664062 -4.507812 6.265625 -6.152344 L 17.835938 -6.152344 C 18.121094 -11.742188 14.746094 -15.425781 9.386719 -15.425781 C 4.367188 -15.425781 0.878906 -12.195312 0.878906 -7.515625 C 0.878906 -2.808594 4.339844 0.425781 9.359375 0.425781 Z M 6.296875 -9.101562 C 6.75 -10.550781 7.941406 -11.34375 9.441406 -11.34375 C 11.089844 -11.34375 12.195312 -10.492188 12.648438 -9.101562 Z M 6.296875 -9.101562 "/></g></g></g><g fill="#ffffff" fill-opacity="1"><g transform="translate(196.568372, 34.013984)"><g><path d="M -1.304688 6.523438 L 0.9375 6.523438 C 5.332031 6.523438 7.457031 4.339844 7.457031 -0.199219 L 7.457031 -15 L 2.011719 -15 L 2.011719 -0.3125 C 2.011719 1.164062 1.359375 1.84375 0 1.84375 L -1.304688 1.84375 Z M 1.390625 -20.132812 C 1.390625 -18.261719 2.722656 -16.957031 4.652344 -16.957031 C 6.550781 -16.957031 7.910156 -18.261719 7.910156 -20.132812 C 7.910156 -22.007812 6.550781 -23.28125 4.652344 -23.28125 C 2.722656 -23.28125 1.390625 -22.007812 1.390625 -20.132812 Z M 1.390625 -20.132812 "/></g></g></g><g fill="#ffffff" fill-opacity="1"><g transform="translate(202.80494, 34.013984)"><g><path d="M 6.890625 0.339844 C 9.046875 0.339844 10.859375 -0.367188 12.136719 -1.644531 L 12.734375 0 L 16.644531 0 L 16.644531 -8.734375 C 16.644531 -13.015625 13.953125 -15.425781 9.132812 -15.425781 C 4.933594 -15.425781 2.410156 -13.527344 1.957031 -10.066406 L 7.0625 -10.066406 C 7.203125 -10.945312 8.054688 -11.542969 9.160156 -11.542969 C 10.378906 -11.542969 11.34375 -10.832031 11.34375 -9.839844 L 11.34375 -8.988281 L 6.296875 -8.988281 C 3.203125 -8.988281 1.21875 -7.144531 1.21875 -4.394531 C 1.21875 -1.476562 3.429688 0.339844 6.890625 0.339844 Z M 6.550781 -4.652344 C 6.550781 -5.5 7.289062 -6.011719 8.449219 -6.011719 L 11.398438 -6.011719 C 11.398438 -4.367188 10.152344 -3.261719 8.507812 -3.261719 C 7.34375 -3.261719 6.550781 -3.800781 6.550781 -4.652344 Z M 6.550781 -4.652344 "/></g></g></g><g fill="#ffffff" fill-opacity="1"><g transform="translate(217.944133, 34.013984)"><g><path d="M 1.898438 0 L 7.34375 0 L 7.34375 -8.082031 C 7.34375 -9.898438 8.28125 -10.917969 9.785156 -10.917969 C 11.230469 -10.917969 12.082031 -9.980469 12.082031 -8.222656 L 12.082031 0 L 17.527344 0 L 17.527344 -8.792969 C 17.527344 -12.847656 15.113281 -15.425781 11.257812 -15.425781 C 9.246094 -15.425781 7.488281 -14.71875 6.378906 -13.46875 L 5.8125 -15 L 1.898438 -15 Z M 1.898438 0 "/></g></g></g><g fill="#ffffff" fill-opacity="1"><g transform="translate(233.962239, 34.013984)"><g><path d="M 8.535156 0.425781 C 10.664062 0.425781 12.449219 -0.285156 13.78125 -1.503906 L 14.320312 0 L 18.234375 0 L 18.234375 -20.984375 L 12.789062 -20.984375 L 12.789062 -14.234375 C 11.597656 -15 10.152344 -15.425781 8.535156 -15.425781 C 4.027344 -15.425781 0.878906 -12.164062 0.878906 -7.515625 C 0.878906 -2.808594 4.027344 0.425781 8.535156 0.425781 Z M 6.210938 -7.515625 C 6.210938 -9.5 7.601562 -10.917969 9.613281 -10.917969 C 11.597656 -10.917969 12.988281 -9.5 12.988281 -7.515625 C 12.988281 -5.5 11.597656 -4.082031 9.613281 -4.082031 C 7.601562 -4.082031 6.210938 -5.5 6.210938 -7.515625 Z M 6.210938 -7.515625 "/></g></g></g><g fill="#ffffff" fill-opacity="1"><g transform="translate(250.972686, 34.013984)"><g><path d="M 1.898438 0 L 7.34375 0 L 7.34375 -6.410156 C 7.34375 -8.960938 8.449219 -10.125 10.890625 -10.125 L 12.621094 -10.125 L 12.621094 -15 L 10.859375 -15 C 8.761719 -15 7.429688 -14.433594 6.492188 -13.128906 L 5.8125 -15 L 1.898438 -15 Z M 1.898438 0 "/></g></g></g><g fill="#ffffff" fill-opacity="1"><g transform="translate(261.348688, 34.013984)"><g><path d="M 9.613281 0.425781 C 14.804688 0.425781 18.320312 -2.777344 18.320312 -7.515625 C 18.320312 -12.222656 14.804688 -15.425781 9.613281 -15.425781 C 4.394531 -15.425781 0.878906 -12.222656 0.878906 -7.515625 C 0.878906 -2.777344 4.394531 0.425781 9.613281 0.425781 Z M 6.210938 -7.515625 C 6.210938 -9.5 7.628906 -10.917969 9.613281 -10.917969 C 11.597656 -10.917969 12.988281 -9.5 12.988281 -7.515625 C 12.988281 -5.5 11.597656 -4.082031 9.613281 -4.082031 C 7.628906 -4.082031 6.210938 -5.5 6.210938 -7.515625 Z M 6.210938 -7.515625 "/></g></g></g><g clip-path="url(#c697767d20)"><g clip-path="url(#4308d77a23)"><path fill="#000000" d="M 74.84375 37.695312 L 64.871094 37.695312 L 64.871094 20.574219 L 74.84375 20.574219 Z M 74.84375 37.695312 " fill-opacity="1" fill-rule="nonzero"/></g></g><g clip-path="url(#7b5e83d407)"><g clip-path="url(#d2cd19d546)"><path fill="#000000" d="M 172.175781 37.695312 L 162.203125 37.695312 L 162.203125 20.574219 L 172.175781 20.574219 Z M 172.175781 37.695312 " fill-opacity="1" fill-rule="nonzero"/></g></g><g fill="#26dc6a" fill-opacity="1"><g transform="translate(159.256596, 45.702122)"><g><path d="M 0.738281 0 L 3.710938 0 C 5.96875 0 7.46875 -1.390625 7.46875 -3.5 C 7.46875 -5.597656 5.96875 -7 3.710938 -7 L 0.738281 -7 Z M 2.757812 -1.808594 L 2.757812 -5.1875 L 3.648438 -5.1875 C 4.71875 -5.1875 5.410156 -4.527344 5.410156 -3.5 C 5.410156 -2.46875 4.71875 -1.808594 3.648438 -1.808594 Z M 2.757812 -1.808594 "/></g></g></g><g fill="#26dc6a" fill-opacity="1"><g transform="translate(167.063514, 45.702122)"><g><path d="M 0.738281 0 L 5.648438 0 L 5.648438 -1.648438 L 2.738281 -1.648438 L 2.738281 -2.730469 L 5.269531 -2.730469 L 5.269531 -4.347656 L 2.738281 -4.347656 L 2.738281 -5.367188 L 5.539062 -5.367188 L 5.539062 -7 L 0.738281 -7 Z M 0.738281 0 "/></g></g></g><g fill="#26dc6a" fill-opacity="1"><g transform="translate(173.161109, 45.702122)"><g><path d="M 2.679688 0 L 4.679688 0 L 7.308594 -7 L 5.160156 -7 L 4.339844 -4.6875 L 3.6875 -2.871094 L 3.039062 -4.6875 L 2.21875 -7 L 0.0507812 -7 Z M 2.679688 0 "/></g></g></g></svg>